<mxfile host="Electron" modified="2024-04-01T19:27:03.090Z" agent="Mozilla/5.0 (Windows NT 10.0; Win64; x64) AppleWebKit/537.36 (KHTML, like Gecko) draw.io/24.1.0 Chrome/120.0.6099.109 Electron/28.1.0 Safari/537.36" etag="y2gpS9o6U4hZfMCqt_Xy" version="24.1.0" type="device">
  <diagram name="Page-1" id="Akw01ZIGIV-2cNeXsqmA">
    <mxGraphModel dx="2603" dy="837" grid="1" gridSize="10" guides="1" tooltips="1" connect="1" arrows="1" fold="1" page="1" pageScale="1" pageWidth="1169" pageHeight="1654" math="0" shadow="0">
      <root>
        <mxCell id="0" />
        <mxCell id="1" parent="0" />
        <mxCell id="d9BL-mROPcZ20sLbiVwK-2" style="edgeStyle=orthogonalEdgeStyle;rounded=0;orthogonalLoop=1;jettySize=auto;html=1;entryX=0.5;entryY=1;entryDx=0;entryDy=0;" parent="1" source="O__Tp7NvbIp_FXz24owh-1" target="d9BL-mROPcZ20sLbiVwK-1" edge="1">
          <mxGeometry relative="1" as="geometry" />
        </mxCell>
        <mxCell id="O__Tp7NvbIp_FXz24owh-1" value="&lt;div&gt;&lt;b&gt;Setter interceptor&lt;/b&gt;&lt;/div&gt;&lt;div&gt;&lt;br&gt;&lt;/div&gt;IProxyWriteHandler" style="rounded=0;whiteSpace=wrap;html=1;" parent="1" vertex="1">
          <mxGeometry x="420" y="500" width="181" height="90" as="geometry" />
        </mxCell>
        <mxCell id="d9BL-mROPcZ20sLbiVwK-1" value="IProxyContext" style="rounded=0;whiteSpace=wrap;html=1;" parent="1" vertex="1">
          <mxGeometry x="451" y="409" width="120" height="60" as="geometry" />
        </mxCell>
        <mxCell id="d9BL-mROPcZ20sLbiVwK-3" value="&lt;div&gt;&lt;b&gt;Property write validation&lt;/b&gt;&lt;/div&gt;&lt;div&gt;WithPropertyValidation()&lt;/div&gt;&lt;div&gt;&lt;br&gt;&lt;/div&gt;IProxyPropertyValidator" style="rounded=0;whiteSpace=wrap;html=1;" parent="1" vertex="1">
          <mxGeometry x="416" y="690" width="190" height="100" as="geometry" />
        </mxCell>
        <mxCell id="d9BL-mROPcZ20sLbiVwK-4" style="edgeStyle=orthogonalEdgeStyle;rounded=0;orthogonalLoop=1;jettySize=auto;html=1;entryX=0.5;entryY=1;entryDx=0;entryDy=0;" parent="1" source="d9BL-mROPcZ20sLbiVwK-3" target="O__Tp7NvbIp_FXz24owh-1" edge="1">
          <mxGeometry relative="1" as="geometry">
            <mxPoint x="502" y="610" as="targetPoint" />
          </mxGeometry>
        </mxCell>
        <mxCell id="d9BL-mROPcZ20sLbiVwK-7" style="edgeStyle=orthogonalEdgeStyle;rounded=0;orthogonalLoop=1;jettySize=auto;html=1;entryX=0.5;entryY=1;entryDx=0;entryDy=0;" parent="1" source="d9BL-mROPcZ20sLbiVwK-6" target="d9BL-mROPcZ20sLbiVwK-3" edge="1">
          <mxGeometry relative="1" as="geometry" />
        </mxCell>
        <mxCell id="d9BL-mROPcZ20sLbiVwK-6" value="&lt;div&gt;&lt;b&gt;&lt;span style=&quot;background-color: initial;&quot;&gt;Data annotations validation&lt;/span&gt;&lt;/b&gt;&lt;/div&gt;&lt;div&gt;&lt;span style=&quot;background-color: initial;&quot;&gt;WithDataAnnotationValidation()&lt;/span&gt;&lt;br&gt;&lt;/div&gt;&lt;div&gt;&lt;br&gt;&lt;/div&gt;DataAnnotationsValidator" style="rounded=0;whiteSpace=wrap;html=1;" parent="1" vertex="1">
          <mxGeometry x="416" y="870" width="189" height="90" as="geometry" />
        </mxCell>
        <mxCell id="d9BL-mROPcZ20sLbiVwK-11" style="edgeStyle=orthogonalEdgeStyle;rounded=0;orthogonalLoop=1;jettySize=auto;html=1;entryX=0.5;entryY=1;entryDx=0;entryDy=0;" parent="1" source="d9BL-mROPcZ20sLbiVwK-8" target="d9BL-mROPcZ20sLbiVwK-9" edge="1">
          <mxGeometry relative="1" as="geometry" />
        </mxCell>
        <mxCell id="d9BL-mROPcZ20sLbiVwK-8" value="&lt;b&gt;Registry&lt;/b&gt;&lt;div&gt;WithRegistry()&lt;/div&gt;&lt;div&gt;&lt;br&gt;&lt;div&gt;IProxyRegistry&lt;br&gt;&lt;/div&gt;&lt;/div&gt;" style="rounded=0;whiteSpace=wrap;html=1;" parent="1" vertex="1">
          <mxGeometry x="725" y="690" width="120" height="100" as="geometry" />
        </mxCell>
        <mxCell id="d9BL-mROPcZ20sLbiVwK-10" style="edgeStyle=orthogonalEdgeStyle;rounded=0;orthogonalLoop=1;jettySize=auto;html=1;entryX=1;entryY=0.5;entryDx=0;entryDy=0;" parent="1" source="d9BL-mROPcZ20sLbiVwK-9" target="O__Tp7NvbIp_FXz24owh-1" edge="1">
          <mxGeometry relative="1" as="geometry" />
        </mxCell>
        <mxCell id="d9BL-mROPcZ20sLbiVwK-9" value="&lt;div&gt;&lt;b&gt;Proxy lifecylce&lt;/b&gt;&lt;/div&gt;&lt;div&gt;WithProxyLifecycle()&lt;br&gt;&lt;/div&gt;&lt;div&gt;&lt;br&gt;&lt;/div&gt;IProxyLifecycleHandler" style="rounded=0;whiteSpace=wrap;html=1;" parent="1" vertex="1">
          <mxGeometry x="685" y="500" width="200" height="90" as="geometry" />
        </mxCell>
        <mxCell id="d9BL-mROPcZ20sLbiVwK-13" style="edgeStyle=orthogonalEdgeStyle;rounded=0;orthogonalLoop=1;jettySize=auto;html=1;entryX=0.5;entryY=1;entryDx=0;entryDy=0;" parent="1" source="d9BL-mROPcZ20sLbiVwK-12" target="d9BL-mROPcZ20sLbiVwK-8" edge="1">
          <mxGeometry relative="1" as="geometry" />
        </mxCell>
        <mxCell id="d9BL-mROPcZ20sLbiVwK-12" value="&lt;div&gt;&lt;b&gt;Automatically assign context of new proxies&lt;/b&gt;&lt;/div&gt;WithAutomaticContextAssignment()" style="rounded=0;whiteSpace=wrap;html=1;" parent="1" vertex="1">
          <mxGeometry x="662" y="890" width="245" height="60" as="geometry" />
        </mxCell>
        <mxCell id="d9BL-mROPcZ20sLbiVwK-15" style="edgeStyle=orthogonalEdgeStyle;rounded=0;orthogonalLoop=1;jettySize=auto;html=1;entryX=1;entryY=0.75;entryDx=0;entryDy=0;" parent="1" source="d9BL-mROPcZ20sLbiVwK-14" target="d9BL-mROPcZ20sLbiVwK-8" edge="1">
          <mxGeometry relative="1" as="geometry" />
        </mxCell>
        <mxCell id="d9BL-mROPcZ20sLbiVwK-14" value="&lt;div&gt;&lt;b&gt;Assign parents&lt;/b&gt;&lt;/div&gt;WithParents()" style="rounded=0;whiteSpace=wrap;html=1;" parent="1" vertex="1">
          <mxGeometry x="1040" y="840" width="145" height="60" as="geometry" />
        </mxCell>
        <mxCell id="d9BL-mROPcZ20sLbiVwK-17" style="edgeStyle=orthogonalEdgeStyle;rounded=0;orthogonalLoop=1;jettySize=auto;html=1;entryX=0;entryY=0.5;entryDx=0;entryDy=0;exitX=1;exitY=0.5;exitDx=0;exitDy=0;" parent="1" source="d9BL-mROPcZ20sLbiVwK-16" target="O__Tp7NvbIp_FXz24owh-1" edge="1">
          <mxGeometry relative="1" as="geometry" />
        </mxCell>
        <mxCell id="d9BL-mROPcZ20sLbiVwK-16" value="&lt;div&gt;&lt;span style=&quot;background-color: initial;&quot;&gt;&lt;b&gt;Observable changes&lt;/b&gt;&lt;/span&gt;&lt;/div&gt;&lt;div&gt;&lt;span style=&quot;background-color: initial;&quot;&gt;WithPropertyChangedHandlers()&lt;/span&gt;&lt;br&gt;&lt;/div&gt;&lt;div&gt;&lt;br&gt;&lt;/div&gt;&lt;div&gt;Subscribe to observable via&amp;nbsp;IProxyPropertyChangedHandler&lt;/div&gt;" style="rounded=0;whiteSpace=wrap;html=1;" parent="1" vertex="1">
          <mxGeometry x="-120" y="490" width="240" height="110" as="geometry" />
        </mxCell>
        <mxCell id="d9BL-mROPcZ20sLbiVwK-22" style="edgeStyle=orthogonalEdgeStyle;rounded=0;orthogonalLoop=1;jettySize=auto;html=1;entryX=0.75;entryY=0;entryDx=0;entryDy=0;" parent="1" source="d9BL-mROPcZ20sLbiVwK-19" target="d9BL-mROPcZ20sLbiVwK-20" edge="1">
          <mxGeometry relative="1" as="geometry" />
        </mxCell>
        <mxCell id="d9BL-mROPcZ20sLbiVwK-19" value="&lt;div&gt;&lt;b&gt;Record property getter accesses&lt;/b&gt;&lt;/div&gt;WithPropertyChangeRecorder()" style="rounded=0;whiteSpace=wrap;html=1;" parent="1" vertex="1">
          <mxGeometry x="-60" y="70" width="220" height="60" as="geometry" />
        </mxCell>
        <mxCell id="d9BL-mROPcZ20sLbiVwK-21" style="edgeStyle=orthogonalEdgeStyle;rounded=0;orthogonalLoop=1;jettySize=auto;html=1;entryX=0;entryY=0.5;entryDx=0;entryDy=0;" parent="1" source="d9BL-mROPcZ20sLbiVwK-20" target="d9BL-mROPcZ20sLbiVwK-1" edge="1">
          <mxGeometry relative="1" as="geometry" />
        </mxCell>
        <mxCell id="d9BL-mROPcZ20sLbiVwK-20" value="&lt;b&gt;Getter interceptor&lt;/b&gt;&lt;div&gt;&lt;br&gt;&lt;/div&gt;&lt;div&gt;IProxyReadHandler&lt;br&gt;&lt;/div&gt;" style="rounded=0;whiteSpace=wrap;html=1;" parent="1" vertex="1">
          <mxGeometry x="292" y="409" width="120" height="60" as="geometry" />
        </mxCell>
        <mxCell id="d9BL-mROPcZ20sLbiVwK-25" style="edgeStyle=orthogonalEdgeStyle;rounded=0;orthogonalLoop=1;jettySize=auto;html=1;entryX=0.5;entryY=0;entryDx=0;entryDy=0;" parent="1" source="d9BL-mROPcZ20sLbiVwK-24" target="d9BL-mROPcZ20sLbiVwK-20" edge="1">
          <mxGeometry relative="1" as="geometry" />
        </mxCell>
        <mxCell id="d9BL-mROPcZ20sLbiVwK-27" style="edgeStyle=orthogonalEdgeStyle;rounded=0;orthogonalLoop=1;jettySize=auto;html=1;entryX=0.5;entryY=0;entryDx=0;entryDy=0;exitX=0.25;exitY=1;exitDx=0;exitDy=0;" parent="1" source="d9BL-mROPcZ20sLbiVwK-24" target="d9BL-mROPcZ20sLbiVwK-16" edge="1">
          <mxGeometry relative="1" as="geometry" />
        </mxCell>
        <mxCell id="d9BL-mROPcZ20sLbiVwK-35" style="edgeStyle=orthogonalEdgeStyle;rounded=0;orthogonalLoop=1;jettySize=auto;html=1;entryX=0;entryY=0.25;entryDx=0;entryDy=0;exitX=0.75;exitY=1;exitDx=0;exitDy=0;" parent="1" source="d9BL-mROPcZ20sLbiVwK-24" target="O__Tp7NvbIp_FXz24owh-1" edge="1">
          <mxGeometry relative="1" as="geometry" />
        </mxCell>
        <mxCell id="d9BL-mROPcZ20sLbiVwK-24" value="&lt;div&gt;&lt;b&gt;Raise property changed for derived properties&lt;/b&gt;&lt;/div&gt;WithDerivedPropertyChangeDetection()" style="rounded=0;whiteSpace=wrap;html=1;" parent="1" vertex="1">
          <mxGeometry x="-80" y="180" width="320" height="60" as="geometry" />
        </mxCell>
        <mxCell id="d9BL-mROPcZ20sLbiVwK-30" style="edgeStyle=orthogonalEdgeStyle;rounded=0;orthogonalLoop=1;jettySize=auto;html=1;entryX=0;entryY=0.75;entryDx=0;entryDy=0;exitX=0.5;exitY=0;exitDx=0;exitDy=0;" parent="1" source="d9BL-mROPcZ20sLbiVwK-28" target="O__Tp7NvbIp_FXz24owh-1" edge="1">
          <mxGeometry relative="1" as="geometry" />
        </mxCell>
        <mxCell id="d9BL-mROPcZ20sLbiVwK-28" value="&lt;div&gt;&lt;b&gt;Call setter only for new values&lt;/b&gt;&lt;/div&gt;WithEqualityCheck()" style="rounded=0;whiteSpace=wrap;html=1;" parent="1" vertex="1">
          <mxGeometry x="110" y="650" width="210" height="60" as="geometry" />
        </mxCell>
        <mxCell id="d9BL-mROPcZ20sLbiVwK-32" style="edgeStyle=orthogonalEdgeStyle;rounded=0;orthogonalLoop=1;jettySize=auto;html=1;entryX=0.5;entryY=0;entryDx=0;entryDy=0;" parent="1" source="d9BL-mROPcZ20sLbiVwK-31" target="d9BL-mROPcZ20sLbiVwK-14" edge="1">
          <mxGeometry relative="1" as="geometry" />
        </mxCell>
        <mxCell id="d9BL-mROPcZ20sLbiVwK-31" value="&lt;b&gt;JSON utilities&lt;/b&gt;&lt;br&gt;property.GetJsonPath()" style="rounded=0;whiteSpace=wrap;html=1;" parent="1" vertex="1">
          <mxGeometry x="1022.5" y="750" width="180" height="60" as="geometry" />
        </mxCell>
        <mxCell id="d9BL-mROPcZ20sLbiVwK-37" style="edgeStyle=orthogonalEdgeStyle;rounded=0;orthogonalLoop=1;jettySize=auto;html=1;entryX=0.75;entryY=0;entryDx=0;entryDy=0;" parent="1" source="d9BL-mROPcZ20sLbiVwK-36" target="d9BL-mROPcZ20sLbiVwK-8" edge="1">
          <mxGeometry relative="1" as="geometry">
            <Array as="points">
              <mxPoint x="900" y="530" />
              <mxPoint x="900" y="630" />
              <mxPoint x="815" y="630" />
            </Array>
          </mxGeometry>
        </mxCell>
        <mxCell id="d9BL-mROPcZ20sLbiVwK-36" value="&lt;b&gt;Property attributes&lt;/b&gt;&lt;div&gt;property.GetPropertyAttributes()&lt;/div&gt;" style="rounded=0;whiteSpace=wrap;html=1;" parent="1" vertex="1">
          <mxGeometry x="992.5" y="500" width="240" height="60" as="geometry" />
        </mxCell>
        <mxCell id="d9BL-mROPcZ20sLbiVwK-39" style="edgeStyle=orthogonalEdgeStyle;rounded=0;orthogonalLoop=1;jettySize=auto;html=1;entryX=1;entryY=0.5;entryDx=0;entryDy=0;" parent="1" source="d9BL-mROPcZ20sLbiVwK-38" target="d9BL-mROPcZ20sLbiVwK-8" edge="1">
          <mxGeometry relative="1" as="geometry" />
        </mxCell>
        <mxCell id="d9BL-mROPcZ20sLbiVwK-38" value="&lt;b&gt;JSON utilities&lt;/b&gt;&lt;div&gt;proxy.ToJsonObject()&lt;/div&gt;" style="whiteSpace=wrap;html=1;" parent="1" vertex="1">
          <mxGeometry x="1040" y="680" width="150" height="60" as="geometry" />
        </mxCell>
        <mxCell id="EaddW8LMifSNtddjIqRl-2" style="edgeStyle=orthogonalEdgeStyle;rounded=0;orthogonalLoop=1;jettySize=auto;html=1;entryX=1;entryY=0.25;entryDx=0;entryDy=0;" edge="1" parent="1" source="EaddW8LMifSNtddjIqRl-1" target="d9BL-mROPcZ20sLbiVwK-8">
          <mxGeometry relative="1" as="geometry">
            <mxPoint x="960" y="670" as="targetPoint" />
          </mxGeometry>
        </mxCell>
        <mxCell id="EaddW8LMifSNtddjIqRl-1" value="&lt;div&gt;&lt;b&gt;Attributes with initializer&lt;/b&gt;&lt;/div&gt;IProxyPropertyInitializer" style="rounded=0;whiteSpace=wrap;html=1;" vertex="1" parent="1">
          <mxGeometry x="1000" y="590" width="200" height="60" as="geometry" />
        </mxCell>
      </root>
    </mxGraphModel>
  </diagram>
</mxfile>
